<svg width="12" height="14" viewBox="0 0 12 14" fill="none" xmlns="http://www.w3.org/2000/svg">
<path d="M3.62476 1.8736H3.49976C3.56851 1.8736 3.62476 1.81735 3.62476 1.7486V1.8736H8.37477V1.7486C8.37477 1.81735 8.43102 1.8736 8.49977 1.8736H8.37477V2.9986H9.49977V1.7486C9.49977 1.19703 9.05133 0.748596 8.49977 0.748596H3.49976C2.9482 0.748596 2.49976 1.19703 2.49976 1.7486V2.9986H3.62476V1.8736ZM11.4998 2.9986H0.499764C0.223201 2.9986 -0.000236511 3.22203 -0.000236511 3.4986V3.9986C-0.000236511 4.06735 0.0560135 4.1236 0.124764 4.1236H1.06851L1.45445 12.2955C1.47945 12.8283 1.92008 13.2486 2.45289 13.2486H9.54664C10.081 13.2486 10.5201 12.8298 10.5451 12.2955L10.931 4.1236H11.8748C11.9435 4.1236 11.9998 4.06735 11.9998 3.9986V3.4986C11.9998 3.22203 11.7763 2.9986 11.4998 2.9986ZM9.42633 12.1236H2.5732L2.19508 4.1236H9.80445L9.42633 12.1236Z" fill="black" fill-opacity="0.45"/>
</svg>
