<svg width="13" height="12" viewBox="0 0 13 12" fill="none" xmlns="http://www.w3.org/2000/svg">
<path d="M4.81238 2.96851H5.96707V8.25444C5.96707 8.32319 6.02332 8.37944 6.09207 8.37944H7.02957C7.09832 8.37944 7.15457 8.32319 7.15457 8.25444V2.96851H8.31238C8.41707 2.96851 8.47488 2.84819 8.41082 2.76694L6.66082 0.551318C6.64912 0.536377 6.63418 0.524295 6.61713 0.515985C6.60007 0.507675 6.58135 0.503357 6.56238 0.503357C6.54341 0.503357 6.52468 0.507675 6.50763 0.515985C6.49057 0.524295 6.47563 0.536377 6.46394 0.551318L4.71394 2.76538C4.64988 2.84819 4.70769 2.96851 4.81238 2.96851ZM12.2811 7.78569H11.3436C11.2749 7.78569 11.2186 7.84194 11.2186 7.91069V10.3169H1.90613V7.91069C1.90613 7.84194 1.84988 7.78569 1.78113 7.78569H0.843628C0.774878 7.78569 0.718628 7.84194 0.718628 7.91069V11.0044C0.718628 11.281 0.942065 11.5044 1.21863 11.5044H11.9061C12.1827 11.5044 12.4061 11.281 12.4061 11.0044V7.91069C12.4061 7.84194 12.3499 7.78569 12.2811 7.78569Z" fill="black" fill-opacity="0.85"/>
</svg>
